<svg width="38" height="38" viewBox="0 0 38 38" fill="none" xmlns="http://www.w3.org/2000/svg">
<path opacity="0.1" d="M10.4912 10.7383C15.1822 5.71487 22.8178 5.71487 27.5088 10.7383C32.1633 15.7229 32.1633 23.778 27.5088 28.7627L23.6201 32.9277C21.0769 35.6513 16.9231 35.6513 14.3799 32.9277L10.4912 28.7627C5.83672 23.778 5.83666 15.7229 10.4912 10.7383Z" fill="black" stroke="black" stroke-width="2"/>
<path d="M10.4854 10.4854C15.1717 5.79913 22.7697 5.79913 27.456 10.4854C32.1423 15.1717 32.1423 22.7697 27.456 27.456L23.2133 31.6986C20.8702 34.0418 17.0712 34.0418 14.7281 31.6986L10.4854 27.456C5.79913 22.7697 5.79913 15.1717 10.4854 10.4854Z" fill="white"/>
<path d="M28.9702 18.9707C28.9702 24.4936 24.4931 28.9707 18.9702 28.9707C13.4474 28.9707 8.97021 24.4936 8.97021 18.9707C8.97021 13.4479 13.4474 8.9707 18.9702 8.9707C24.4931 8.9707 28.9702 13.4479 28.9702 18.9707Z" fill="#BDBDBD"/>
<path d="M15 24V15C15 14.9224 15.0181 14.8458 15.0528 14.7764C15.0875 14.707 15.1379 14.6466 15.2 14.6C15.7193 14.2105 16.3509 14 17 14C18.5 14 19.5 15 20.6665 15C21.3332 15 21.8443 14.8667 22.2 14.6C22.2743 14.5443 22.3626 14.5104 22.4551 14.502C22.5476 14.4937 22.6406 14.5113 22.7236 14.5528C22.8067 14.5943 22.8765 14.6581 22.9253 14.7371C22.9741 14.8161 23 14.9071 23 15V20C23 20.0776 22.9819 20.1542 22.9472 20.2236C22.9125 20.293 22.8621 20.3534 22.8 20.4C22.2807 20.7895 21.6491 21 21 21C19.5 21 18.5 20 17 20C16.2621 20 15.55 20.272 15 20.764" stroke="black" stroke-linecap="round" stroke-linejoin="round"/>
<path d="M15 24V15C15 14.9224 15.0181 14.8458 15.0528 14.7764C15.0875 14.707 15.1379 14.6466 15.2 14.6C15.7193 14.2105 16.3509 14 17 14C18.5 14 19.5 15 20.6665 15C21.3332 15 21.8443 14.8667 22.2 14.6C22.2743 14.5443 22.3626 14.5104 22.4551 14.502C22.5476 14.4937 22.6406 14.5113 22.7236 14.5528C22.8067 14.5943 22.8765 14.6581 22.9253 14.7371C22.9741 14.8161 23 14.9071 23 15V20C23 20.0776 22.9819 20.1542 22.9472 20.2236C22.9125 20.293 22.8621 20.3534 22.8 20.4C22.2807 20.7895 21.6491 21 21 21C19.5 21 18.5 20 17 20C16.2621 20 15.55 20.272 15 20.764" fill="black"/>
<path d="M15 24V15C15 14.9224 15.0181 14.8458 15.0528 14.7764C15.0875 14.707 15.1379 14.6466 15.2 14.6C15.7193 14.2105 16.3509 14 17 14C18.5 14 19.5 15 20.6665 15C21.3332 15 21.8443 14.8667 22.2 14.6C22.2743 14.5443 22.3626 14.5104 22.4551 14.502C22.5476 14.4937 22.6406 14.5113 22.7236 14.5528C22.8067 14.5943 22.8765 14.6581 22.9253 14.7371C22.9741 14.8161 23 14.9071 23 15V20C23 20.0776 22.9819 20.1542 22.9472 20.2236C22.9125 20.293 22.8621 20.3534 22.8 20.4C22.2807 20.7895 21.6491 21 21 21C19.5 21 18.5 20 17 20C16.2621 20 15.55 20.272 15 20.764" stroke="black" stroke-linecap="round" stroke-linejoin="round"/>
</svg>
