<svg width="34" height="36" viewBox="0 0 34 36" fill="none" xmlns="http://www.w3.org/2000/svg">
<g filter="url(#filter0_d_449_3311)">
<path d="M8.4853 8.48542C13.1716 3.79913 20.7696 3.79913 25.4559 8.48542C30.1422 13.1717 30.1422 20.7697 25.4559 25.456L21.2132 29.6986C18.8701 32.0418 15.0711 32.0418 12.7279 29.6986L8.4853 25.456C3.79901 20.7697 3.79901 13.1717 8.4853 8.48542Z" fill="white"/>
</g>
<circle cx="16.9706" cy="16.9707" r="10" fill="#FF395C"/>
<path d="M16.9706 18.9707H16.9756M18.9706 18.9707H18.9756M14.9706 18.9707H14.9756M12.4706 20.4707C12.4706 20.7359 12.5759 20.9903 12.7635 21.1778C12.951 21.3653 13.2054 21.4707 13.4706 21.4707H20.4706C20.7358 21.4707 20.9902 21.3653 21.1777 21.1778C21.3652 20.9903 21.4706 20.7359 21.4706 20.4707V15.2207C21.4706 15.1759 21.4586 15.1318 21.4358 15.0932C21.413 15.0546 21.3802 15.0228 21.3409 15.0013C21.3015 14.9797 21.2571 14.9691 21.2123 14.9706C21.1675 14.9721 21.1239 14.9856 21.0861 15.0097L18.8551 16.4317C18.8173 16.4558 18.7737 16.4693 18.7289 16.4708C18.684 16.4723 18.6396 16.4617 18.6003 16.4401C18.561 16.4186 18.5282 16.3868 18.5054 16.3482C18.4826 16.3096 18.4705 16.2656 18.4706 16.2207V15.2207C18.4706 15.1759 18.4586 15.1318 18.4358 15.0932C18.413 15.0546 18.3802 15.0228 18.3409 15.0013C18.3015 14.9797 18.2571 14.9691 18.2123 14.9706C18.1675 14.9721 18.1239 14.9856 18.0861 15.0097L15.8556 16.4317C15.8178 16.456 15.7741 16.4696 15.7292 16.4711C15.6843 16.4727 15.6398 16.4621 15.6004 16.4405C15.561 16.4189 15.5282 16.3871 15.5053 16.3484C15.4825 16.3098 15.4705 16.2656 15.4706 16.2207V13.4707C15.4706 13.2055 15.3652 12.9511 15.1777 12.7636C14.9902 12.5761 14.7358 12.4707 14.4706 12.4707H13.4706C13.2054 12.4707 12.951 12.5761 12.7635 12.7636C12.5759 12.9511 12.4706 13.2055 12.4706 13.4707V20.4707Z" stroke="white" stroke-linecap="round" stroke-linejoin="round"/>
<defs>
<filter id="filter0_d_449_3311" x="1.97058" y="2.9707" width="30" height="32.4844" filterUnits="userSpaceOnUse" color-interpolation-filters="sRGB">
<feFlood flood-opacity="0" result="BackgroundImageFix"/>
<feColorMatrix in="SourceAlpha" type="matrix" values="0 0 0 0 0 0 0 0 0 0 0 0 0 0 0 0 0 0 127 0" result="hardAlpha"/>
<feOffset dy="1"/>
<feGaussianBlur stdDeviation="1.5"/>
<feComposite in2="hardAlpha" operator="out"/>
<feColorMatrix type="matrix" values="0 0 0 0 0 0 0 0 0 0 0 0 0 0 0 0 0 0 0.25 0"/>
<feBlend mode="normal" in2="BackgroundImageFix" result="effect1_dropShadow_449_3311"/>
<feBlend mode="normal" in="SourceGraphic" in2="effect1_dropShadow_449_3311" result="shape"/>
</filter>
</defs>
</svg>
