<svg width="170" height="59" viewBox="0 0 170 59" fill="none" xmlns="http://www.w3.org/2000/svg">
<path d="M56.8215 46.5915C54.1233 46.5915 51.7645 46.1971 49.7448 45.4081C47.741 44.6034 46.1631 43.4595 45.0113 41.9763C43.8595 40.4774 43.2125 38.6786 43.0705 36.5801L43.0469 36.2014H49.7922L49.8395 36.4618C49.9973 37.3454 50.3917 38.1106 51.0229 38.7575C51.6698 39.3887 52.5061 39.8857 53.5317 40.2486C54.5573 40.5957 55.717 40.7693 57.0108 40.7693C58.3362 40.7693 59.4722 40.5957 60.4189 40.2486C61.3814 39.8857 62.123 39.3808 62.6437 38.7339C63.1802 38.0712 63.4484 37.3059 63.4484 36.4381V36.4144C63.4484 35.2626 62.9908 34.3632 62.0757 33.7163C61.1763 33.0536 59.6616 32.5014 57.5315 32.0596L53.934 31.3496C50.5732 30.6711 48.0408 29.5271 46.3367 27.9177C44.6326 26.3083 43.7806 24.2177 43.7806 21.6458V21.6221C43.7806 19.5394 44.3407 17.7249 45.461 16.1786C46.5812 14.6165 48.1196 13.4095 50.0762 12.5574C52.0327 11.6896 54.2732 11.2557 56.7978 11.2557C59.4328 11.2557 61.7049 11.6659 63.6141 12.4864C65.539 13.3069 67.038 14.4666 68.1109 15.9656C69.1839 17.4645 69.7756 19.208 69.886 21.1961L69.9097 21.6458H63.1644L63.1407 21.3618C63.0145 20.4624 62.6753 19.6972 62.123 19.066C61.5708 18.4191 60.8371 17.9221 59.9219 17.575C59.0226 17.2278 57.9812 17.0543 56.7978 17.0543C55.5829 17.0543 54.5336 17.2357 53.65 17.5986C52.7664 17.9458 52.0879 18.427 51.6146 19.0424C51.157 19.6577 50.9282 20.3756 50.9282 21.1961V21.2198C50.9282 22.2927 51.3858 23.1605 52.3009 23.8232C53.2161 24.4859 54.6519 25.0145 56.6084 25.409L60.2296 26.1427C62.6121 26.616 64.5687 27.2708 66.0992 28.1071C67.6297 28.9433 68.7579 30.0005 69.4837 31.2786C70.2252 32.5408 70.596 34.0634 70.596 35.8464V35.8701C70.596 38.0633 70.0438 39.9646 68.9393 41.574C67.8506 43.1676 66.2727 44.4062 64.2058 45.2898C62.1546 46.1576 59.6931 46.5915 56.8215 46.5915Z" fill="#222222"/>
<path d="M74.0638 45.9998V11.8474H80.9748V25.0066H81.1168C81.7795 23.4288 82.7656 22.2217 84.0753 21.3855C85.4006 20.5334 87.01 20.1074 88.9035 20.1074C90.7495 20.1074 92.3353 20.5177 93.6607 21.3381C94.986 22.1428 96.0038 23.2868 96.7138 24.7699C97.4396 26.2531 97.8025 28.0203 97.8025 30.0715V45.9998H90.8915V31.4916C90.8915 29.7244 90.4655 28.3438 89.6135 27.3497C88.7772 26.3399 87.5702 25.835 85.9923 25.835C84.9825 25.835 84.0989 26.0796 83.3416 26.5687C82.6 27.042 82.0162 27.7047 81.5901 28.5568C81.1799 29.393 80.9748 30.3634 80.9748 31.4679V45.9998H74.0638Z" fill="#222222"/>
<path d="M102.394 45.9998V20.6281H109.305V45.9998H102.394ZM105.85 17.362C104.808 17.362 103.932 17.0069 103.222 16.2969C102.512 15.5869 102.157 14.7427 102.157 13.7645C102.157 12.7704 102.512 11.9263 103.222 11.232C103.932 10.522 104.808 10.167 105.85 10.167C106.891 10.167 107.767 10.522 108.477 11.232C109.187 11.9263 109.542 12.7704 109.542 13.7645C109.542 14.7427 109.187 15.5869 108.477 16.2969C107.767 17.0069 106.891 17.362 105.85 17.362Z" fill="#222222"/>
<path d="M113.944 54.2835V20.6281H120.855V25.054H121.02C121.478 24.0284 122.078 23.1448 122.819 22.4032C123.577 21.6616 124.452 21.0936 125.446 20.6991C126.456 20.3046 127.561 20.1074 128.76 20.1074C130.906 20.1074 132.752 20.636 134.298 21.6931C135.844 22.7345 137.036 24.2414 137.872 26.2137C138.708 28.186 139.126 30.5449 139.126 33.2903V33.314C139.126 36.0594 138.708 38.4183 137.872 40.3906C137.051 42.3629 135.876 43.8776 134.345 44.9348C132.815 45.992 130.985 46.5205 128.854 46.5205C127.655 46.5205 126.543 46.3233 125.517 45.9288C124.492 45.5344 123.6 44.9821 122.843 44.2721C122.086 43.5463 121.47 42.6785 120.997 41.6687H120.855V54.2835H113.944ZM126.488 40.793C127.64 40.793 128.634 40.4932 129.47 39.8936C130.306 39.2782 130.953 38.4104 131.411 37.2901C131.868 36.1699 132.097 34.8445 132.097 33.314V33.2903C132.097 31.744 131.868 30.4107 131.411 29.2905C130.953 28.1702 130.298 27.3182 129.446 26.7344C128.61 26.1348 127.624 25.835 126.488 25.835C125.367 25.835 124.381 26.1427 123.529 26.758C122.677 27.3576 122.015 28.2175 121.541 29.3378C121.068 30.4423 120.831 31.7677 120.831 33.314V33.3376C120.831 34.8524 121.068 36.1699 121.541 37.2901C122.03 38.4104 122.693 39.2782 123.529 39.8936C124.381 40.4932 125.367 40.793 126.488 40.793Z" fill="#222222"/>
<path d="M142.866 45.9998V20.6281H149.777V45.9998H142.866ZM146.321 17.362C145.28 17.362 144.404 17.0069 143.694 16.2969C142.984 15.5869 142.629 14.7427 142.629 13.7645C142.629 12.7704 142.984 11.9263 143.694 11.232C144.404 10.522 145.28 10.167 146.321 10.167C147.363 10.167 148.238 10.522 148.948 11.232C149.658 11.9263 150.013 12.7704 150.013 13.7645C150.013 14.7427 149.658 15.5869 148.948 16.2969C148.238 17.0069 147.363 17.362 146.321 17.362Z" fill="#222222"/>
<path d="M164.983 46.5205C162.174 46.5205 160.091 45.9288 158.734 44.7455C157.377 43.5621 156.699 41.6134 156.699 38.8995V25.835H153.173V20.6281H156.699V14.4272H163.681V20.6281H168.32V25.835H163.681V38.1422C163.681 39.3256 163.941 40.1539 164.462 40.6273C164.998 41.0849 165.787 41.3136 166.829 41.3136C167.144 41.3136 167.42 41.3058 167.657 41.29C167.894 41.2584 168.115 41.2269 168.32 41.1953V46.2602C167.941 46.3233 167.468 46.3785 166.9 46.4259C166.348 46.489 165.709 46.5205 164.983 46.5205Z" fill="#222222"/>
<path d="M33.3042 22.5376V40.3833L17.8491 49.3062L2.39404 40.3833V22.5376L17.8491 13.6147L33.3042 22.5376ZM17.8501 30.4683L7.11279 25.2612L16.9907 31.9556L17.8501 43.8569L18.7085 31.9556L28.5864 25.2612L17.8501 30.4683Z" fill="#222222"/>
</svg>
