<svg width="1024" height="1024" viewBox="0 0 1024 1024" fill="none" xmlns="http://www.w3.org/2000/svg">
<g clip-path="url(#clip0_396_7068)">
<rect width="1024" height="1024" fill="white"/>
<path d="M594.072 525.013V508.861L583.22 489.681H591.246L597.605 502.35L603.965 489.681H611.991L601.139 508.861V525.013H594.072Z" fill="#222222"/>
<path d="M561.946 525.013V489.681H580.016V496.091H569.063V504.419H578.653V510.779H569.063V525.013H561.946Z" fill="#222222"/>
<path d="M519.589 525.013V489.681H530.845C537.76 489.681 542.454 494.021 542.454 500.684C542.454 507.246 537.558 511.839 530.896 511.839H526.706V525.013H519.589ZM526.706 505.681H529.886C533.016 505.681 535.135 503.662 535.135 500.684C535.135 497.757 532.965 495.839 529.987 495.839H526.706V505.681Z" fill="#222222"/>
<path d="M491.639 525.013V489.681H502.894C509.809 489.681 514.504 494.021 514.504 500.684C514.504 507.246 509.608 511.839 502.945 511.839H498.756V525.013H491.639ZM498.756 505.681H501.935C505.065 505.681 507.185 503.662 507.185 500.684C507.185 497.757 505.014 495.839 502.036 495.839H498.756V505.681Z" fill="#222222"/>
<path d="M477.145 525.013V489.681H484.261V525.013H477.145Z" fill="#222222"/>
<path d="M440.864 525.013V489.681H447.981V504.015H462.669V489.681H469.786V525.013H462.669V510.426H447.981V525.013H440.864Z" fill="#222222"/>
<path d="M423.842 489.024C430.958 489.024 433.886 494.173 434.744 496.747L428.839 499.422C428.081 497.756 426.769 495.586 423.69 495.586C421.267 495.586 419.854 497.05 419.854 498.968C419.854 504.823 435.198 503.965 435.198 514.918C435.198 521.126 430.757 525.669 423.387 525.669C415.816 525.669 412.687 520.369 411.677 517.492L417.684 514.564C418.643 516.886 420.611 519.057 423.791 519.057C426.416 519.057 427.98 517.694 427.98 515.422C427.98 509.366 412.737 510.375 412.737 499.069C412.737 493.113 417.078 489.024 423.842 489.024Z" fill="#222222"/>
<rect x="548" width="7" height="1026" fill="#FF395C"/>
<rect x="549.5" y="490" width="4" height="7.5" rx="2" fill="white"/>
<path d="M-75.5308 687.386L-74.7634 679.884L1041.97 794.114L1041.2 801.616L-75.5308 687.386Z" fill="url(#paint0_linear_396_7068)"/>
<rect x="489" y="743.466" width="4.48865" height="8.79775" rx="2.24432" transform="rotate(-84.1595 489 743.466)" fill="white"/>
<path d="M-107.054 270.183L-101.977 264.607L750.827 1041.26L745.75 1046.83L-107.054 270.183Z" fill="#FF6A00"/>
<rect x="652" y="959.808" width="5.15" height="9.28" rx="2.575" transform="rotate(-47.6758 652 959.808)" fill="white"/>
<rect x="1054.37" y="143.979" width="7.54093" height="1257.46" transform="rotate(43.8888 1054.37 143.979)" fill="url(#paint1_linear_396_7068)"/>
<rect x="463.866" y="759.927" width="4.48865" height="8.79775" rx="2.24432" transform="rotate(43.8888 463.866 759.927)" fill="white"/>
<rect x="1057.76" y="608.191" width="7.54093" height="1099.05" transform="rotate(86.9945 1057.76 608.191)" fill="url(#paint2_linear_396_7068)"/>
<rect x="427.698" y="642.718" width="4.48865" height="8.79775" rx="2.24432" transform="rotate(86.9945 427.698 642.718)" fill="white"/>
<rect x="341.39" y="1042.01" width="7.54093" height="824.993" transform="rotate(-120 341.39 1042.01)" fill="url(#paint3_linear_396_7068)"/>
<rect x="578.24" y="903.881" width="5.15324" height="9.27758" rx="2.57662" transform="rotate(-120 578.24 903.881)" fill="white"/>
</g>
<defs>
<linearGradient id="paint0_linear_396_7068" x1="-75.1471" y1="683.635" x2="1041.58" y2="797.865" gradientUnits="userSpaceOnUse">
<stop stop-color="#00C90D"/>
<stop offset="1" stop-color="#00C3E1"/>
</linearGradient>
<linearGradient id="paint1_linear_396_7068" x1="1058.14" y1="143.979" x2="1058.14" y2="1401.44" gradientUnits="userSpaceOnUse">
<stop stop-color="#C356D3"/>
<stop offset="1" stop-color="#A358FF"/>
</linearGradient>
<linearGradient id="paint2_linear_396_7068" x1="1058.21" y1="595.962" x2="1061.51" y2="1687.14" gradientUnits="userSpaceOnUse">
<stop stop-color="#0088FF"/>
<stop offset="1" stop-color="#0AC7FC"/>
</linearGradient>
<linearGradient id="paint3_linear_396_7068" x1="345.158" y1="1693.49" x2="345.446" y2="1066.76" gradientUnits="userSpaceOnUse">
<stop stop-color="#FFCA0C"/>
<stop offset="1" stop-color="#FFEA00"/>
</linearGradient>
<clipPath id="clip0_396_7068">
<rect width="1024" height="1024" fill="white"/>
</clipPath>
</defs>
</svg>
