<svg width="38" height="38" viewBox="0 0 38 38" fill="none" xmlns="http://www.w3.org/2000/svg">
<path opacity="0.5" d="M10.4912 10.7383C15.1822 5.71487 22.8178 5.71487 27.5088 10.7383C32.1633 15.7229 32.1633 23.778 27.5088 28.7627L23.6201 32.9277C21.0769 35.6513 16.9231 35.6513 14.3799 32.9277L10.4912 28.7627C5.83672 23.778 5.83666 15.7229 10.4912 10.7383Z" fill="#C7C7C7" stroke="#C7C7C7" stroke-width="2"/>
<path d="M10.4854 10.4854C15.1717 5.79913 22.7697 5.79913 27.456 10.4854C32.1423 15.1717 32.1423 22.7697 27.456 27.456L23.2133 31.6986C20.8702 34.0418 17.0712 34.0418 14.7281 31.6986L10.4854 27.456C5.79913 22.7697 5.79913 15.1717 10.4854 10.4854Z" fill="white"/>
<path d="M28.9702 18.9707C28.9702 24.4936 24.4931 28.9707 18.9702 28.9707C13.4474 28.9707 8.97021 24.4936 8.97021 18.9707C8.97021 13.4479 13.4474 8.9707 18.9702 8.9707C24.4931 8.9707 28.9702 13.4479 28.9702 18.9707Z" fill="#9C45A9"/>
<g clip-path="url(#clip0_455_4654)">
<path d="M13.9998 20.0003H23.9998M15.9998 20.0003V22.0003M17.9998 20.0003V22.0003M19.9998 20.0003V22.0003M21.9998 20.0003V22.0003M22.2498 17.0003C21.5498 17.0003 20.9498 16.6003 20.6498 16.0003C20.3658 15.2127 19.8038 14.5559 19.0696 14.1534C18.3353 13.7509 17.4794 13.6304 16.6626 13.8147C15.8458 13.9989 15.1244 14.4751 14.6341 15.1539C14.1437 15.8326 13.9181 16.667 13.9998 17.5003V23.0003C13.9998 23.2656 14.1051 23.5199 14.2927 23.7075C14.4802 23.895 14.7346 24.0003 14.9998 24.0003H22.9998C23.265 24.0003 23.5193 23.895 23.7069 23.7075C23.8944 23.5199 23.9998 23.2656 23.9998 23.0003V18.7503C23.9998 17.8003 23.1998 17.0003 22.2498 17.0003Z" stroke="white" stroke-width="0.9" stroke-linecap="round" stroke-linejoin="round"/>
</g>
<defs>
<clipPath id="clip0_455_4654">
<rect width="12" height="12" fill="white" transform="translate(13 13)"/>
</clipPath>
</defs>
</svg>
