<svg width="38" height="38" viewBox="0 0 38 38" fill="none" xmlns="http://www.w3.org/2000/svg">
<path opacity="0.1" d="M10.4912 10.7383C15.1822 5.71487 22.8178 5.71487 27.5088 10.7383C32.1633 15.7229 32.1633 23.778 27.5088 28.7627L23.6201 32.9277C21.0769 35.6513 16.9231 35.6513 14.3799 32.9277L10.4912 28.7627C5.83672 23.778 5.83666 15.7229 10.4912 10.7383Z" fill="black" stroke="black" stroke-width="2"/>
<path d="M10.4854 10.4854C15.1717 5.79913 22.7697 5.79913 27.456 10.4854C32.1423 15.1717 32.1423 22.7697 27.456 27.456L23.2133 31.6986C20.8702 34.0418 17.0712 34.0418 14.7281 31.6986L10.4854 27.456C5.79913 22.7697 5.79913 15.1717 10.4854 10.4854Z" fill="white"/>
<path d="M28.9702 18.9707C28.9702 24.4936 24.4931 28.9707 18.9702 28.9707C13.4474 28.9707 8.97021 24.4936 8.97021 18.9707C8.97021 13.4479 13.4474 8.9707 18.9702 8.9707C24.4931 8.9707 28.9702 13.4479 28.9702 18.9707Z" fill="#BDBDBD"/>
<path d="M23 18C23 20.4965 20.2305 23.0965 19.3005 23.8995C19.2139 23.9646 19.1084 23.9999 19 23.9999C18.8916 23.9999 18.7861 23.9646 18.6995 23.8995C17.7695 23.0965 15 20.4965 15 18C15 16.9391 15.4214 15.9217 16.1716 15.1716C16.9217 14.4214 17.9391 14 19 14C20.0609 14 21.0783 14.4214 21.8284 15.1716C22.5786 15.9217 23 16.9391 23 18Z" fill="black" stroke="black" stroke-linecap="round" stroke-linejoin="round"/>
<path d="M21 18C21 19.1046 20.1046 20 19 20C17.8954 20 17 19.1046 17 18C17 16.8954 17.8954 16 19 16C20.1046 16 21 16.8954 21 18Z" fill="#BDBDBD" stroke="black" stroke-linecap="round" stroke-linejoin="round"/>
</svg>